<svg width="34" height="34" viewBox="0 0 34 34" fill="none" xmlns="http://www.w3.org/2000/svg">
<g id="shopping-cart-01">
<g id="Icon">
<path d="M24.5826 23.3752H12.459C11.0562 23.3752 10.3549 23.3752 9.79174 23.1164C9.29552 22.8885 8.87575 22.5219 8.58296 22.061C8.25068 21.5379 8.15613 20.8429 7.96702 19.453L6.47684 8.50016H29.7977C30.2677 8.50016 30.5027 8.50016 30.668 8.59652C30.813 8.68105 30.9233 8.81434 30.9792 8.97262C31.043 9.15306 30.999 9.38389 30.9111 9.84556L29.0359 19.6901C28.7861 21.0018 28.6611 21.6576 28.323 22.1486C28.0249 22.5816 27.6123 22.9231 27.1312 23.1349C26.5856 23.3752 25.9179 23.3752 24.5826 23.3752Z" fill="white"/>
<path d="M12.7507 31.1668C13.5331 31.1668 14.1673 30.5326 14.1673 29.7502C14.1673 28.9678 13.5331 28.3335 12.7507 28.3335C11.9682 28.3335 11.334 28.9678 11.334 29.7502C11.334 30.5326 11.9682 31.1668 12.7507 31.1668Z" fill="white"/>
<path d="M24.084 31.1668C24.8664 31.1668 25.5007 30.5326 25.5007 29.7502C25.5007 28.9678 24.8664 28.3335 24.084 28.3335C23.3016 28.3335 22.6673 28.9678 22.6673 29.7502C22.6673 30.5326 23.3016 31.1668 24.084 31.1668Z" fill="white"/>
<path d="M2.83398 2.8335H4.68438C5.03291 2.8335 5.20717 2.8335 5.34741 2.89759C5.47099 2.95407 5.57572 3.0449 5.64911 3.15925C5.73239 3.28902 5.75704 3.46153 5.80633 3.80655L6.47684 8.50016M6.47684 8.50016L7.96702 19.453C8.15613 20.8429 8.25068 21.5379 8.58296 22.061C8.87575 22.5219 9.29552 22.8885 9.79174 23.1164C10.3549 23.3752 11.0562 23.3752 12.459 23.3752H24.5826C25.9179 23.3752 26.5856 23.3752 27.1312 23.1349C27.6123 22.9231 28.0249 22.5816 28.323 22.1486C28.6611 21.6576 28.7861 21.0018 29.0359 19.6901L30.9111 9.84556C30.999 9.38389 31.043 9.15306 30.9792 8.97262C30.9233 8.81434 30.813 8.68105 30.668 8.59652C30.5027 8.50016 30.2677 8.50016 29.7977 8.50016H6.47684ZM14.1673 29.7502C14.1673 30.5326 13.5331 31.1668 12.7507 31.1668C11.9682 31.1668 11.334 30.5326 11.334 29.7502C11.334 28.9678 11.9682 28.3335 12.7507 28.3335C13.5331 28.3335 14.1673 28.9678 14.1673 29.7502ZM25.5007 29.7502C25.5007 30.5326 24.8664 31.1668 24.084 31.1668C23.3016 31.1668 22.6673 30.5326 22.6673 29.7502C22.6673 28.9678 23.3016 28.3335 24.084 28.3335C24.8664 28.3335 25.5007 28.9678 25.5007 29.7502Z" stroke="white" stroke-width="2" stroke-linecap="round" stroke-linejoin="round"/>
</g>
</g>
</svg>
