<svg width="32" height="32" viewBox="0 0 32 32" fill="none" xmlns="http://www.w3.org/2000/svg">
<g id="check-verified-02">
<path id="Icon" d="M11.9993 15.9998L14.666 18.6665L20.666 12.6665M23.8676 6.66451C24.1421 7.32855 24.6692 7.85637 25.3328 8.13193L27.6597 9.09581C28.3237 9.37088 28.8513 9.8985 29.1264 10.5626C29.4015 11.2267 29.4015 11.9728 29.1264 12.6369L28.1632 14.9622C27.8881 15.6266 27.8877 16.3735 28.1641 17.0376L29.1256 19.3622C29.2619 19.6911 29.3322 20.0437 29.3322 20.3998C29.3323 20.7558 29.2622 21.1084 29.1259 21.4374C28.9897 21.7663 28.7899 22.0652 28.5381 22.3169C28.2863 22.5687 27.9874 22.7683 27.6584 22.9045L25.3332 23.8677C24.6691 24.1422 24.1413 24.6693 23.8658 25.3329L22.9019 27.6599C22.6269 28.324 22.0993 28.8516 21.4352 29.1266C20.7712 29.4017 20.025 29.4017 19.361 29.1266L17.0357 28.1635C16.3716 27.8891 15.6258 27.8896 14.9621 28.165L12.6352 29.1275C11.9715 29.4019 11.226 29.4017 10.5625 29.1269C9.89898 28.852 9.37169 28.325 9.09643 27.6616L8.13231 25.334C7.85775 24.6699 7.33074 24.1421 6.66715 23.8665L4.34023 22.9027C3.67646 22.6277 3.14902 22.1004 2.87386 21.4367C2.59869 20.773 2.59832 20.0272 2.87282 19.3632L3.83597 17.0379C4.11035 16.3738 4.10979 15.6279 3.83441 14.9642L2.87265 12.6355C2.73629 12.3066 2.66607 11.9541 2.66602 11.598C2.66596 11.242 2.73606 10.8894 2.87231 10.5604C3.00857 10.2315 3.2083 9.93257 3.46011 9.68084C3.71191 9.42911 4.01085 9.22946 4.33984 9.09331L6.66508 8.13013C7.32851 7.8558 7.856 7.32944 8.13175 6.66658L9.09559 4.33958C9.37065 3.6755 9.89825 3.14788 10.5623 2.87281C11.2264 2.59774 11.9725 2.59774 12.6366 2.87281L14.9618 3.83599C15.6259 4.11039 16.3718 4.10983 17.0354 3.83443L19.3633 2.8743C20.0273 2.59938 20.7733 2.59944 21.4372 2.87446C22.1011 3.14948 22.6286 3.67694 22.9038 4.34086L23.8679 6.66854L23.8676 6.66451Z" stroke="white" stroke-width="2" stroke-linecap="round" stroke-linejoin="round"/>
</g>
</svg>
