<svg width="24" height="30" viewBox="0 0 24 30" fill="none" xmlns="http://www.w3.org/2000/svg">
<path id="Icon" d="M17.334 4.33341C18.5739 4.33341 19.1939 4.33341 19.7026 4.46971C21.083 4.83958 22.1612 5.91777 22.531 7.29814C22.6673 7.80681 22.6673 8.42679 22.6673 9.66675V21.9334C22.6673 24.1736 22.6673 25.2937 22.2313 26.1494C21.8478 26.902 21.2359 27.5139 20.4833 27.8974C19.6276 28.3334 18.5075 28.3334 16.2673 28.3334H7.73398C5.49377 28.3334 4.37367 28.3334 3.51802 27.8974C2.76537 27.5139 2.15345 26.902 1.76996 26.1494C1.33398 25.2937 1.33398 24.1736 1.33398 21.9334V9.66675C1.33398 8.42679 1.33398 7.80681 1.47028 7.29814C1.84015 5.91777 2.91834 4.83958 4.29871 4.46971C4.80737 4.33341 5.42736 4.33341 6.66732 4.33341M8.00065 19.0001L10.6673 21.6667L16.6673 15.6667M8.80065 7.00008H15.2006C15.9474 7.00008 16.3208 7.00008 16.606 6.85476C16.8569 6.72693 17.0608 6.52295 17.1887 6.27207C17.334 5.98685 17.334 5.61348 17.334 4.86675V3.80008C17.334 3.05334 17.334 2.67998 17.1887 2.39476C17.0608 2.14388 16.8569 1.9399 16.606 1.81207C16.3208 1.66675 15.9474 1.66675 15.2007 1.66675H8.80065C8.05391 1.66675 7.68055 1.66675 7.39533 1.81207C7.14445 1.9399 6.94047 2.14388 6.81264 2.39476C6.66732 2.67998 6.66732 3.05334 6.66732 3.80008V4.86675C6.66732 5.61349 6.66732 5.98685 6.81264 6.27207C6.94047 6.52295 7.14445 6.72693 7.39533 6.85476C7.68055 7.00008 8.05391 7.00008 8.80065 7.00008Z" stroke="white" stroke-width="2" stroke-linecap="round" stroke-linejoin="round"/>
</svg>
