<svg width="56" height="56" viewBox="0 0 56 56" fill="none" xmlns="http://www.w3.org/2000/svg">
<g id="Cup">
<path id="Vector" d="M7.31006 7.5215C7.31356 7.6419 7.79656 19.5307 19.2192 23.8973C20.693 25.6312 22.4871 27.0648 24.5035 28.1197V37.1021H21.0035V42H18.2035L18.2042 46.6466C18.1762 47.3326 17.6323 47.8695 16.9666 47.8695H16.1035V52.5H39.9035V47.8695H39.0208C38.3488 47.8695 37.8035 47.334 37.8035 46.6753V42H35.0035V37.1021H31.5035V28.1197C33.5396 27.0544 35.3489 25.6029 36.8305 23.8462C48.2545 19.4782 48.6941 7.6384 48.6969 7.5194L48.7151 6.8012H41.8243C41.7592 5.1632 41.5947 4.1251 41.5877 4.0831L41.489 3.5H14.518L14.42 4.0831C14.4123 4.1251 14.2478 5.1632 14.1827 6.8012H7.28906L7.31006 7.5222V7.5215ZM38.5035 49.2191V51.1H17.5035V49.2149C18.6683 48.972 19.5517 47.9521 19.6035 46.6753V43.4H36.4035V46.6753C36.4035 47.9304 37.3072 48.9804 38.5035 49.2184V49.2191ZM33.6035 42H22.4035V38.5021H33.6035V42ZM47.2437 8.2012C47.0008 10.5084 45.6694 17.6932 38.4867 21.5565C41.258 17.0009 41.8397 11.7495 41.8495 8.2005L47.2437 8.2012ZM15.7227 4.9H40.2836C40.6238 7.8918 41.5191 21.56 30.4906 27.0662L30.1035 27.258V37.1014H25.9035V27.2587L25.5164 27.0662C14.4879 21.56 15.3825 7.8918 15.7234 4.9H15.7227ZM14.1575 8.2012C14.168 11.7607 14.7539 17.0338 17.5483 21.5992C10.3705 17.7282 9.01666 10.5168 8.76536 8.2012H14.1575Z" fill="white"/>
</g>
</svg>
