<svg width="32" height="33" viewBox="0 0 32 33" fill="none" xmlns="http://www.w3.org/2000/svg">
<g id="mail-01" opacity="0.8">
<path id="Icon" d="M2.66699 9.9585L13.5536 17.5791C14.4351 18.1962 14.8759 18.5047 15.3553 18.6242C15.7789 18.7298 16.2218 18.7298 16.6453 18.6242C17.1248 18.5047 17.5655 18.1962 18.4471 17.5791L29.3337 9.9585M9.06699 27.2918H22.9337C25.1739 27.2918 26.294 27.2918 27.1496 26.8559C27.9023 26.4724 28.5142 25.8604 28.8977 25.1078C29.3337 24.2521 29.3337 23.132 29.3337 20.8918V12.3585C29.3337 10.1183 29.3337 8.99818 28.8977 8.14253C28.5142 7.38989 27.9023 6.77796 27.1496 6.39447C26.294 5.9585 25.1739 5.9585 22.9337 5.9585H9.06699C6.82678 5.9585 5.70668 5.9585 4.85103 6.39447C4.09838 6.77796 3.48646 7.38989 3.10297 8.14253C2.66699 8.99818 2.66699 10.1183 2.66699 12.3585V20.8918C2.66699 23.132 2.66699 24.2521 3.10297 25.1078C3.48646 25.8604 4.09838 26.4724 4.85103 26.8559C5.70668 27.2918 6.82678 27.2918 9.06699 27.2918Z" stroke="white" stroke-width="2" stroke-linecap="round" stroke-linejoin="round"/>
</g>
</svg>
