<svg width="20" height="20" viewBox="0 0 20 20" fill="none" xmlns="http://www.w3.org/2000/svg">
<g id="Frame">
<path id="Vector" d="M1.67188 4.99479C1.67187 4.55276 1.84747 4.12884 2.16003 3.81628C2.47259 3.50372 2.89651 3.32813 3.33854 3.32812H16.6719C17.1139 3.32813 17.5378 3.50372 17.8504 3.81628C18.1629 4.12884 18.3385 4.55276 18.3385 4.99479V14.9948C18.3385 15.4368 18.1629 15.8607 17.8504 16.1733C17.5378 16.4859 17.1139 16.6615 16.6719 16.6615H3.33854C2.89651 16.6615 2.47259 16.4859 2.16003 16.1733C1.84747 15.8607 1.67188 15.4368 1.67188 14.9948V4.99479Z" stroke="#41C4DA" stroke-width="2" stroke-linecap="round" stroke-linejoin="round"/>
<path id="Vector_2" d="M1.67188 6.67188L7.92271 11.6727C8.51378 12.1456 9.24822 12.4033 10.0052 12.4033C10.7622 12.4033 11.4966 12.1456 12.0877 11.6727L18.3385 6.67188" stroke="#41C4DA" stroke-width="2" stroke-linecap="round" stroke-linejoin="round"/>
</g>
</svg>
