<svg width="32" height="32" viewBox="0 0 32 32" fill="none" xmlns="http://www.w3.org/2000/svg">
<g id="Hand Greeting">
<g id="Group">
<path id="Vector" d="M27.4222 13.3357C27.3073 13.0309 27.0115 12.8263 26.6861 12.8263C26.5925 12.8263 26.5001 12.8429 26.4118 12.8759L23.5385 13.9455C23.3365 14.0141 23.1685 14.1639 23.0771 14.3562C22.9854 14.5499 22.9763 14.7671 23.052 14.969L23.0904 15.0704C23.0726 15.0787 23.0549 15.0871 23.0371 15.0955C22.5809 15.3095 22.0638 15.5519 21.6993 15.5519H21.6992C20.9371 15.5363 20.1697 15.3235 19.3573 15.0983C18.5141 14.8647 17.6422 14.6229 16.7729 14.6229C16.3761 14.6229 16.012 14.6715 15.6605 14.7722C15.148 14.9184 14.5825 15.1803 14.0896 15.4931C13.1549 15.1015 11.9233 15.1615 10.9184 15.2155C10.4291 15.2421 9.96702 15.2671 9.65182 15.2311C9.42174 15.2056 9.1915 15.0906 8.94862 14.965C9.02142 14.7687 9.01391 14.5559 8.92719 14.3653C8.8403 14.1744 8.68398 14.0287 8.48686 13.9549L5.58735 12.8759C5.18303 12.7243 4.72975 12.9312 4.57727 13.3351L1.69727 20.9386C1.62335 21.1352 1.63023 21.349 1.71727 21.5405C1.80415 21.7319 1.96031 21.8779 2.15775 21.9519L5.05727 23.0309C5.39023 23.1551 5.75886 23.0362 5.96238 22.7635C6.47247 23.0813 7.2955 23.6096 7.78798 23.9293C7.53294 24.3509 7.50462 24.8455 7.71998 25.2856C7.98942 25.836 8.5979 26.1896 9.18334 26.1383C9.19758 26.3362 9.25518 26.532 9.35726 26.717C9.65246 27.2536 10.2758 27.5736 10.8584 27.4959C10.8801 27.6819 10.9406 27.8648 11.0398 28.037C11.3368 28.5535 11.9472 28.8613 12.5147 28.7887C12.5373 28.9805 12.6005 29.168 12.7048 29.3423C12.9761 29.7954 13.4875 30.0883 14.0078 30.0883H14.0081C14.4475 30.0883 14.8467 29.8853 15.1325 29.517L15.2901 29.3143L16.2565 29.981C16.5909 30.2259 16.9849 30.3511 17.3873 30.3511C17.6517 30.3511 17.92 30.297 18.1773 30.1872C18.6683 29.9775 19.0382 29.5987 19.2237 29.1333C19.6987 29.2128 20.1982 29.1066 20.6243 28.8239C21.0361 28.5506 21.3177 28.1463 21.4225 27.6952C21.8264 27.6725 22.2211 27.5221 22.5469 27.2597C22.8579 27.0095 23.0801 26.676 23.1875 26.3087C23.9094 26.3267 24.5435 25.9506 24.8837 25.2991C25.2657 24.5679 25.1387 23.6976 24.575 23.0831L25.8571 22.3741L25.932 22.5719C26.047 22.8762 26.3425 23.0808 26.6678 23.0808C26.7617 23.0808 26.8539 23.0642 26.9421 23.0312L29.8425 21.9519C30.0392 21.8783 30.1955 21.7322 30.2824 21.5408C30.3694 21.3495 30.3765 21.1357 30.3022 20.9383L27.4222 13.3357ZM15.8792 15.5387C16.1589 15.4589 16.451 15.42 16.7729 15.42C17.5339 15.42 18.3161 15.6368 19.1443 15.8666C19.9683 16.0951 20.8208 16.3315 21.6832 16.3488C21.6857 16.3488 21.7102 16.349 21.7131 16.349C22.2408 16.349 22.8425 16.0672 23.3736 15.8181L25.5713 21.6203L23.9249 22.5311C23.9174 22.525 23.9094 22.5186 23.9019 22.5125C23.1297 21.8856 22.3573 21.2591 21.5846 20.6327L21.5145 20.5759C21.6704 20.4624 21.7254 20.2503 21.6349 20.0735C21.5342 19.8775 21.2937 19.7994 21.0982 19.9003C20.943 19.9799 20.7859 20.0471 20.6309 20.0999C20.6305 20.0999 20.6301 20.1003 20.6296 20.1003C20.3099 20.2098 19.9643 20.2653 19.6025 20.2653C18.3752 20.2653 16.8886 19.6072 15.6262 18.505C15.4717 18.3701 15.2389 18.3746 15.0896 18.5163C14.464 19.1103 13.6317 19.5323 12.8059 19.6741C12.6611 19.6989 12.5315 19.7109 12.4096 19.7109C11.9577 19.7109 11.6043 19.5391 11.2686 19.1554C11.2883 19.1338 11.32 19.1042 11.3696 19.0674C11.8856 18.6431 12.5166 18.0235 13.127 17.4245C13.5486 17.0106 13.9472 16.6195 14.2681 16.3322C14.7408 15.9912 15.3561 15.6879 15.8792 15.5387ZM5.33535 22.2837L2.44335 21.2202L5.3091 13.6231L8.19678 14.6976L8.07198 15.0091C8.07102 15.0115 8.0707 15.0138 8.06974 15.016L8.06926 15.0159L5.41295 22.0482L5.33535 22.2837ZM9.06366 25.3458C8.81279 25.3458 8.55439 25.1768 8.43599 24.9347C8.35934 24.7781 8.31214 24.5347 8.52206 24.2643L9.54703 22.9451C9.68351 22.7698 9.84974 22.6808 10.0411 22.6808C10.2899 22.6808 10.5505 22.8389 10.675 23.0653C10.7521 23.2058 10.807 23.4293 10.6392 23.701L9.46926 25.1863C9.34335 25.2909 9.20718 25.3458 9.06366 25.3458ZM10.6728 26.7106C10.4281 26.7106 10.1801 26.5586 10.0555 26.3322C9.97662 26.1891 9.91934 25.9626 10.0853 25.6928L11.2553 24.2075C11.3803 24.1032 11.5171 24.0488 11.663 24.0488C11.8993 24.0488 12.1419 24.1941 12.2665 24.4103C12.3467 24.5496 12.4088 24.7709 12.2616 25.0384L11.1081 26.5227C10.9773 26.6464 10.8313 26.7106 10.6728 26.7106ZM12.3369 28.0021C12.0995 28.0021 11.8555 27.8562 11.7304 27.6387C11.6507 27.4999 11.5891 27.2791 11.7371 27.012L12.8901 25.5279C13.0203 25.4045 13.1664 25.3408 13.3264 25.3408C13.56 25.3408 13.8021 25.4824 13.9283 25.6933C14.0085 25.8269 14.0731 26.0407 13.9419 26.3043L12.7518 27.836C12.6256 27.9451 12.4865 28.0021 12.3369 28.0021ZM14.0078 29.2907C13.7657 29.2907 13.5173 29.1466 13.3889 28.9325C13.3107 28.8016 13.2486 28.5911 13.3806 28.3266L14.571 26.7943C14.6989 26.6837 14.8379 26.6258 14.9849 26.6258C15.2361 26.6258 15.4947 26.7954 15.6136 27.0381C15.6902 27.1946 15.7374 27.4379 15.5278 27.7082L14.5025 29.0279C14.367 29.2023 14.2006 29.2907 14.0078 29.2907ZM17.8638 29.4536C17.4777 29.6189 17.0525 29.5754 16.7181 29.3307L15.7797 28.6832L16.1574 28.1971C16.4035 27.8802 16.5051 27.5072 16.4614 27.1419C16.7136 27.3458 16.9702 27.553 17.2267 27.7605C17.6614 28.1117 18.0926 28.4602 18.4976 28.7883C18.3971 29.0805 18.1723 29.3219 17.8638 29.4536ZM24.1768 24.9293C23.9993 25.2691 23.6051 25.5819 23.0253 25.4914L20.044 23.0853C19.8725 22.9472 19.6214 22.9733 19.4833 23.1453C19.3453 23.3165 19.3718 23.5675 19.5433 23.7058L22.4315 26.0365C22.3757 26.2669 22.2432 26.48 22.0469 26.6381C21.8086 26.8298 21.5113 26.9157 21.219 26.8899C21.0984 26.7935 20.9061 26.6347 20.7789 26.5299L18.1888 24.4263C18.0177 24.2882 17.7665 24.3136 17.6278 24.4847C17.4893 24.6557 17.5152 24.9067 17.6862 25.0455L20.2712 27.1448C20.4189 27.2664 20.5499 27.3747 20.6549 27.4595C20.6083 27.7371 20.4438 27.9861 20.183 28.1591C19.8625 28.3719 19.4774 28.4165 19.1448 28.2864C18.6992 27.925 18.2147 27.5336 17.728 27.1402C17.1782 26.6962 16.6262 26.2503 16.1261 25.8442C15.955 25.7058 15.704 25.7315 15.5651 25.9026C15.5531 25.9175 15.544 25.9336 15.5344 25.9495C15.3022 25.8517 15.0505 25.8079 14.8049 25.84C14.7817 25.6474 14.7174 25.4591 14.6121 25.2834C14.3094 24.7784 13.6965 24.48 13.1393 24.5559C13.1174 24.3687 13.0566 24.1847 12.9568 24.0117C12.6697 23.5144 12.0941 23.2083 11.5446 23.2562C11.5315 23.0591 11.4745 22.8643 11.3737 22.6808C11.1072 22.1962 10.584 21.8831 10.0411 21.8831C9.60382 21.8831 9.20462 22.0864 8.91758 22.4555L8.26847 23.2907C7.75294 22.9557 6.80447 22.3461 6.27583 22.0195L8.65886 15.7115C8.92606 15.8479 9.22286 15.9856 9.56334 16.0232C9.94334 16.0661 10.4147 16.0408 10.9608 16.0114C11.7248 15.9706 12.6323 15.9247 13.3565 16.0912C13.1115 16.3239 12.8464 16.5832 12.5686 16.8555C11.9705 17.4426 11.352 18.0495 10.8798 18.4389C10.5432 18.6871 10.4592 18.9499 10.4478 19.1267C10.4352 19.325 10.5059 19.5122 10.6478 19.6568C11.1397 20.2299 11.7163 20.5085 12.4097 20.5085C12.5773 20.5085 12.751 20.4928 12.9408 20.4603C13.8179 20.3098 14.6691 19.913 15.3713 19.3317C16.1822 19.9856 17.7936 21.0629 19.6025 21.0629C19.9734 21.0629 20.3326 21.0154 20.6736 20.9211L21.6414 21.7063C22.2582 22.2067 22.9089 22.7347 23.4448 23.1688C23.6033 23.2975 23.7619 23.4258 23.9205 23.5544C24.4022 24.0091 24.3601 24.5784 24.1768 24.9293ZM26.6774 22.2895L26.4395 21.661L23.9681 15.1367L23.8057 14.6967L26.676 13.6173L29.5632 21.2047L26.6774 22.2895Z" fill="#41C4DA"/>
<path id="Vector_2" d="M20.1924 3.38067H17.9008L16.2803 1.75987C16.2054 1.68499 16.1038 1.64307 15.9982 1.64307C15.8926 1.64307 15.791 1.68499 15.7163 1.75987L14.0955 3.38067H11.804C11.5836 3.38067 11.4052 3.55923 11.4052 3.77939V6.07091L9.78461 7.69171C9.70973 7.76643 9.66797 7.86787 9.66797 7.97363C9.66797 8.07923 9.70989 8.18083 9.78461 8.25539L11.4052 9.87603V12.1679C11.4052 12.388 11.5836 12.5664 11.804 12.5664H14.0956L15.7163 14.1867C15.7942 14.2647 15.8961 14.3035 15.9982 14.3035C16.1003 14.3035 16.2024 14.2647 16.28 14.1867L17.9008 12.5664H20.1924C20.4126 12.5664 20.5912 12.388 20.5912 12.1679V9.87603L22.2115 8.25539C22.3673 8.09987 22.3673 7.84755 22.2118 7.69171L20.5912 6.07091V3.77939C20.5912 3.55923 20.4126 3.38067 20.1924 3.38067ZM21.3659 7.97363L19.9107 9.42899C19.8358 9.50355 19.7939 9.60515 19.7939 9.71075V11.7691H17.7355C17.6299 11.7691 17.5283 11.8111 17.4537 11.8859L15.9982 13.3413L14.5425 11.8861C14.4678 11.8112 14.3664 11.7693 14.2606 11.7693H12.2025V9.71075C12.2025 9.60499 12.1604 9.50355 12.0857 9.42899L10.6302 7.97363L12.0857 6.51763C12.1606 6.44307 12.2025 6.34147 12.2025 6.23587V4.17795H14.2606C14.3664 4.17795 14.4678 4.13603 14.5425 4.06115L15.9982 2.60547L17.4534 4.06115C17.5283 4.13603 17.6299 4.17795 17.7355 4.17795H19.7939V6.23587C19.7939 6.34163 19.836 6.44307 19.9105 6.51763L21.3659 7.97363Z" fill="#41C4DA"/>
</g>
</g>
</svg>
