<svg width="96" height="96" viewBox="0 0 96 96" fill="none" xmlns="http://www.w3.org/2000/svg">
<g id="cloud-01">
<path id="Icon" d="M22.7 79.9998C11.2677 79.9998 2 70.7896 2 59.4283C2 48.7149 10.2409 39.9142 20.7668 38.9454C22.9199 25.9295 34.2931 15.9998 48 15.9998C61.7069 15.9998 73.08 25.9295 75.2332 38.9454C85.7591 39.9142 94 48.7149 94 59.4283C94 70.7896 84.7323 79.9998 73.3 79.9998C53.1068 79.9998 40.3792 79.9998 22.7 79.9998Z" stroke="white" stroke-width="2.25" stroke-linecap="round" stroke-linejoin="round"/>
<g id="Group 1000005044">
<g id="Icon_2">
<path d="M38.3326 52.7345C40.2102 52.7345 41.7323 51.2121 41.7323 49.3341C41.7323 47.4562 40.2102 45.9338 38.3326 45.9338C36.4549 45.9338 34.9328 47.4562 34.9328 49.3341C34.9328 51.2121 36.4549 52.7345 38.3326 52.7345Z" stroke="white" stroke-opacity="0.8" stroke-width="1.33335" stroke-linecap="round" stroke-linejoin="round"/>
<path d="M45.9563 52.4253C45.8192 52.7361 45.7782 53.0809 45.8388 53.4151C45.8994 53.7494 46.0588 54.0578 46.2963 54.3007L46.3581 54.3625C46.5497 54.5539 46.7016 54.7812 46.8053 55.0313C46.909 55.2815 46.9624 55.5497 46.9624 55.8205C46.9624 56.0913 46.909 56.3595 46.8053 56.6097C46.7016 56.8598 46.5497 57.0871 46.3581 57.2785C46.1667 57.4701 45.9395 57.6221 45.6893 57.7258C45.4392 57.8295 45.1711 57.8829 44.9003 57.8829C44.6295 57.8829 44.3614 57.8295 44.1113 57.7258C43.8611 57.6221 43.6339 57.4701 43.4425 57.2785L43.3807 57.2167C43.1379 56.9791 42.8295 56.8198 42.4953 56.7592C42.1611 56.6986 41.8164 56.7395 41.5057 56.8767C41.201 57.0073 40.9411 57.2242 40.7581 57.5006C40.575 57.777 40.4768 58.101 40.4755 58.4326V58.6077C40.4755 59.1543 40.2584 59.6785 39.872 60.0649C39.4855 60.4514 38.9615 60.6685 38.415 60.6685C37.8685 60.6685 37.3444 60.4514 36.958 60.0649C36.5716 59.6785 36.3545 59.1543 36.3545 58.6077V58.515C36.3465 58.1739 36.2362 57.8432 36.0377 57.5657C35.8393 57.2882 35.562 57.0768 35.2419 56.9591C34.9311 56.8219 34.5864 56.781 34.2522 56.8416C33.918 56.9022 33.6096 57.0616 33.3668 57.2991L33.305 57.3609C33.1137 57.5526 32.8864 57.7046 32.6363 57.8083C32.3861 57.912 32.118 57.9653 31.8472 57.9653C31.5765 57.9653 31.3083 57.912 31.0582 57.8083C30.8081 57.7046 30.5808 57.5526 30.3895 57.3609C30.1979 57.1696 30.0459 56.9423 29.9422 56.6921C29.8385 56.4419 29.7852 56.1738 29.7852 55.9029C29.7852 55.6321 29.8385 55.3639 29.9422 55.1138C30.0459 54.8636 30.1979 54.6363 30.3895 54.4449L30.4513 54.3831C30.6888 54.1402 30.8481 53.8318 30.9087 53.4976C30.9693 53.1633 30.9284 52.8186 30.7913 52.5078C30.6607 52.203 30.4438 51.9431 30.1674 51.76C29.891 51.5769 29.5671 51.4787 29.2356 51.4774H29.0605C28.514 51.4774 27.9899 51.2602 27.6035 50.8738C27.2171 50.4873 27 49.9631 27 49.4166C27 48.87 27.2171 48.3458 27.6035 47.9594C27.9899 47.5729 28.514 47.3558 29.0605 47.3558H29.1532C29.4942 47.3478 29.8249 47.2374 30.1023 47.0389C30.3798 46.8405 30.5911 46.5631 30.7088 46.2429C30.846 45.9322 30.8869 45.5874 30.8263 45.2532C30.7657 44.9189 30.6064 44.6105 30.3689 44.3676L30.307 44.3058C30.1155 44.1144 29.9635 43.8871 29.8598 43.6369C29.7561 43.3868 29.7027 43.1186 29.7027 42.8478C29.7027 42.577 29.7561 42.3088 29.8598 42.0586C29.9635 41.8084 30.1155 41.5812 30.307 41.3898C30.4984 41.1982 30.7257 41.0462 30.9758 40.9425C31.2259 40.8387 31.4941 40.7854 31.7648 40.7854C32.0356 40.7854 32.3037 40.8387 32.5539 40.9425C32.804 41.0462 33.0312 41.1982 33.2226 41.3898L33.2844 41.4516C33.5272 41.6891 33.8356 41.8485 34.1698 41.9091C34.504 41.9697 34.8487 41.9288 35.1594 41.7916H35.2419C35.5466 41.661 35.8065 41.4441 35.9895 41.1677C36.1725 40.8912 36.2708 40.5673 36.2721 40.2357V40.0606C36.2721 39.514 36.4892 38.9898 36.8756 38.6033C37.262 38.2169 37.7861 37.9998 38.3326 37.9998C38.879 37.9998 39.4031 38.2169 39.7895 38.6033C40.176 38.9898 40.393 39.514 40.393 40.0606V40.1533C40.3944 40.4849 40.4926 40.8088 40.6756 41.0852C40.8587 41.3617 41.1186 41.5786 41.4233 41.7092C41.734 41.8464 42.0787 41.8873 42.4129 41.8267C42.7471 41.7661 43.0555 41.6067 43.2983 41.3692L43.3601 41.3073C43.5515 41.1157 43.7787 40.9637 44.0289 40.86C44.279 40.7563 44.5471 40.7029 44.8179 40.7029C45.0887 40.7029 45.3568 40.7563 45.6069 40.86C45.8571 40.9637 46.0843 41.1157 46.2757 41.3073C46.4672 41.4987 46.6192 41.726 46.7229 41.9762C46.8266 42.2264 46.88 42.4945 46.88 42.7653C46.88 43.0362 46.8266 43.3043 46.7229 43.5545C46.6192 43.8047 46.4672 44.032 46.2757 44.2234L46.2139 44.2852C45.9763 44.528 45.817 44.8365 45.7564 45.1707C45.6958 45.505 45.7367 45.8497 45.8739 46.1605V46.2429C46.0045 46.5477 46.2213 46.8076 46.4977 46.9907C46.7741 47.1738 47.098 47.272 47.4295 47.2733H47.6047C48.1511 47.2733 48.6752 47.4905 49.0616 47.8769C49.4481 48.2634 49.6651 48.7876 49.6651 49.3341C49.6651 49.8807 49.4481 50.4049 49.0616 50.7913C48.6752 51.1778 48.1511 51.3949 47.6047 51.3949H47.5119C47.1804 51.3963 46.8565 51.4945 46.5801 51.6776C46.3037 51.8607 46.0869 52.1206 45.9563 52.4253Z" stroke="white" stroke-opacity="0.8" stroke-width="1.33335" stroke-linecap="round" stroke-linejoin="round"/>
</g>
<g id="Icon_3">
<path d="M61.002 63.9315C62.4379 63.9315 63.6018 62.7674 63.6018 61.3313C63.6018 59.8952 62.4379 58.731 61.002 58.731C59.5662 58.731 58.4022 59.8952 58.4022 61.3313C58.4022 62.7674 59.5662 63.9315 61.002 63.9315Z" stroke="white" stroke-opacity="0.8" stroke-width="1.33335" stroke-linecap="round" stroke-linejoin="round"/>
<path d="M66.8319 63.6951C66.7271 63.9328 66.6958 64.1964 66.7421 64.452C66.7885 64.7076 66.9103 64.9435 67.0919 65.1292L67.1392 65.1765C67.2857 65.3229 67.4019 65.4967 67.4812 65.688C67.5605 65.8793 67.6013 66.0843 67.6013 66.2914C67.6013 66.4985 67.5605 66.7036 67.4812 66.8949C67.4019 67.0862 67.2857 67.26 67.1392 67.4064C66.9928 67.5529 66.8191 67.6692 66.6278 67.7485C66.4365 67.8278 66.2315 67.8686 66.0244 67.8686C65.8173 67.8686 65.6123 67.8278 65.421 67.7485C65.2297 67.6692 65.056 67.5529 64.9096 67.4064L64.8624 67.3591C64.6767 67.1775 64.4409 67.0556 64.1853 67.0093C63.9297 66.9629 63.6661 66.9942 63.4285 67.0991C63.1955 67.199 62.9968 67.3648 62.8568 67.5762C62.7168 67.7876 62.6417 68.0353 62.6407 68.2889V68.4229C62.6407 68.8408 62.4747 69.2416 62.1792 69.5372C61.8837 69.8327 61.4829 69.9988 61.065 69.9988C60.6472 69.9988 60.2464 69.8327 59.9509 69.5372C59.6554 69.2416 59.4894 68.8408 59.4894 68.4229V68.3519C59.4833 68.0911 59.3989 67.8382 59.2471 67.626C59.0954 67.4138 58.8833 67.2522 58.6385 67.1621C58.4009 67.0572 58.1373 67.026 57.8818 67.0723C57.6262 67.1186 57.3904 67.2405 57.2047 67.4222L57.1574 67.4694C57.0111 67.616 56.8373 67.7322 56.646 67.8115C56.4548 67.8908 56.2497 67.9316 56.0427 67.9316C55.8356 67.9316 55.6306 67.8908 55.4393 67.8115C55.248 67.7322 55.0742 67.616 54.9279 67.4694C54.7814 67.3231 54.6652 67.1493 54.5859 66.958C54.5066 66.7666 54.4658 66.5616 54.4658 66.3545C54.4658 66.1474 54.5066 65.9423 54.5859 65.751C54.6652 65.5597 54.7814 65.3859 54.9279 65.2395L54.9752 65.1923C55.1568 65.0065 55.2786 64.7707 55.325 64.5151C55.3713 64.2595 55.34 63.9958 55.2351 63.7582C55.1353 63.5251 54.9694 63.3264 54.7581 63.1864C54.5467 63.0464 54.299 62.9712 54.0455 62.9702H53.9116C53.4937 62.9702 53.0929 62.8042 52.7974 62.5087C52.5019 62.2131 52.3359 61.8123 52.3359 61.3943C52.3359 60.9764 52.5019 60.5755 52.7974 60.28C53.0929 59.9845 53.4937 59.8184 53.9116 59.8184H53.9825C54.2433 59.8123 54.4962 59.7279 54.7083 59.5761C54.9205 59.4244 55.0821 59.2123 55.1721 58.9674C55.277 58.7298 55.3083 58.4661 55.2619 58.2105C55.2156 57.9549 55.0937 57.7191 54.9121 57.5334L54.8649 57.4861C54.7184 57.3397 54.6021 57.1659 54.5228 56.9746C54.4436 56.7833 54.4027 56.5782 54.4027 56.3711C54.4027 56.164 54.4436 55.959 54.5228 55.7677C54.6021 55.5763 54.7184 55.4025 54.8649 55.2562C55.0112 55.1097 55.185 54.9934 55.3763 54.9141C55.5675 54.8348 55.7726 54.794 55.9796 54.794C56.1867 54.794 56.3917 54.8348 56.583 54.9141C56.7743 54.9934 56.9481 55.1097 57.0944 55.2562L57.1417 55.3035C57.3273 55.4851 57.5632 55.607 57.8187 55.6533C58.0743 55.6997 58.3379 55.6684 58.5755 55.5635H58.6385C58.8716 55.4636 59.0703 55.2977 59.2103 55.0863C59.3502 54.8749 59.4254 54.6272 59.4264 54.3737V54.2397C59.4264 53.8218 59.5924 53.4209 59.8879 53.1254C60.1834 52.8299 60.5841 52.6638 61.002 52.6638C61.4199 52.6638 61.8207 52.8299 62.1162 53.1254C62.4117 53.4209 62.5777 53.8218 62.5777 54.2397V54.3106C62.5787 54.5642 62.6538 54.8119 62.7938 55.0233C62.9338 55.2347 63.1325 55.4006 63.3655 55.5004C63.6031 55.6053 63.8667 55.6366 64.1223 55.5903C64.3778 55.5439 64.6137 55.4221 64.7993 55.2404L64.8466 55.1931C64.9929 55.0466 65.1667 54.9304 65.358 54.8511C65.5493 54.7718 65.7543 54.731 65.9614 54.731C66.1684 54.731 66.3735 54.7718 66.5648 54.8511C66.756 54.9304 66.9298 55.0466 67.0762 55.1931C67.2227 55.3395 67.3389 55.5133 67.4182 55.7046C67.4975 55.8959 67.5383 56.101 67.5383 56.3081C67.5383 56.5152 67.4975 56.7203 67.4182 56.9116C67.3389 57.1029 67.2227 57.2767 67.0762 57.423L67.0289 57.4703C66.8473 57.656 66.7254 57.8919 66.6791 58.1475C66.6327 58.4031 66.664 58.6667 66.7689 58.9044V58.9674C66.8688 59.2005 67.0346 59.3992 67.246 59.5392C67.4573 59.6792 67.705 59.7544 67.9585 59.7554H68.0924C68.5103 59.7554 68.9111 59.9214 69.2066 60.217C69.5021 60.5125 69.6681 60.9133 69.6681 61.3313C69.6681 61.7492 69.5021 62.1501 69.2066 62.4456C68.9111 62.7412 68.5103 62.9072 68.0924 62.9072H68.0215C67.768 62.9082 67.5203 62.9833 67.309 63.1233C67.0976 63.2633 66.9318 63.4621 66.8319 63.6951Z" stroke="white" stroke-opacity="0.8" stroke-width="1.33335" stroke-linecap="round" stroke-linejoin="round"/>
</g>
</g>
</g>
</svg>
