<svg width="96" height="96" viewBox="0 0 96 96" fill="none" xmlns="http://www.w3.org/2000/svg">
<g id="phone-02">
<path id="Icon" d="M60 7.99976V13.5998C60 15.84 60 16.9601 59.564 17.8157C59.1805 18.5684 58.5686 19.1803 57.816 19.5638C56.9603 19.9998 55.8402 19.9998 53.6 19.9998H42.4C40.1598 19.9998 39.0397 19.9998 38.184 19.5638C37.4314 19.1803 36.8195 18.5684 36.436 17.8157C36 16.9601 36 15.84 36 13.5998V7.99976M32.8 87.9998H63.2C67.6804 87.9998 69.9206 87.9998 71.6319 87.1278C73.1372 86.3608 74.3611 85.137 75.1281 83.6317C76 81.9204 76 79.6802 76 75.1998V20.7998C76 16.3193 76 14.0791 75.1281 12.3678C74.3611 10.8625 73.1372 9.63869 71.6319 8.8717C69.9206 7.99976 67.6804 7.99976 63.2 7.99976H32.8C28.3196 7.99976 26.0794 7.99976 24.3681 8.8717C22.8628 9.63869 21.6389 10.8625 20.8719 12.3678C20 14.0791 20 16.3193 20 20.7998V75.1998C20 79.6802 20 81.9204 20.8719 83.6317C21.6389 85.137 22.8628 86.3608 24.3681 87.1278C26.0794 87.9998 28.3196 87.9998 32.8 87.9998Z" stroke="white" stroke-width="1.8" stroke-linecap="round" stroke-linejoin="round"/>
</g>
</svg>
