<svg width="96" height="96" viewBox="0 0 96 96" fill="none" xmlns="http://www.w3.org/2000/svg">
<g id="laptop-02">
<path id="Icon" d="M84 63.9998V28.7998C84 24.3193 84 22.0791 83.1281 20.3678C82.3611 18.8625 81.1372 17.6387 79.6319 16.8717C77.9206 15.9998 75.6804 15.9998 71.2 15.9998H24.8C20.3196 15.9998 18.0794 15.9998 16.3681 16.8717C14.8628 17.6387 13.6389 18.8625 12.8719 20.3678C12 22.0791 12 24.3193 12 28.7998V63.9998M18.6667 79.9998H77.3333C79.8133 79.9998 81.0532 79.9998 82.0705 79.7272C84.8313 78.9874 86.9877 76.831 87.7274 74.0703C88 73.053 88 71.813 88 69.3331C88 68.0931 88 67.4731 87.8637 66.9645C87.4938 65.5841 86.4156 64.5059 85.0353 64.136C84.5266 63.9998 83.9066 63.9998 82.6667 63.9998H13.3333C12.0934 63.9998 11.4734 63.9998 10.9647 64.136C9.58436 64.5059 8.50617 65.5841 8.1363 66.9645C8 67.4731 8 68.0931 8 69.3331C8 71.813 8 73.053 8.27259 74.0703C9.01233 76.831 11.1687 78.9874 13.9294 79.7272C14.9468 79.9998 16.1867 79.9998 18.6667 79.9998Z" stroke="white" stroke-width="1.8" stroke-linecap="round" stroke-linejoin="round"/>
</g>
</svg>
