<svg width="56" height="56" viewBox="0 0 56 56" fill="none" xmlns="http://www.w3.org/2000/svg">
<g id="lightbulb-02">
<path id="Icon" d="M23.3337 41.2035V46.6667C23.3337 49.2441 25.423 51.3334 28.0003 51.3334C30.5777 51.3334 32.667 49.2441 32.667 46.6667V41.2035M28.0003 4.66675V7.00008M7.00033 28.0001H4.66699M12.8337 12.8334L11.4334 11.4332M43.167 12.8334L44.5676 11.4332M51.3337 28.0001H49.0003M42.0003 28.0001C42.0003 35.7321 35.7323 42.0001 28.0003 42.0001C20.2683 42.0001 14.0003 35.7321 14.0003 28.0001C14.0003 20.2681 20.2683 14.0001 28.0003 14.0001C35.7323 14.0001 42.0003 20.2681 42.0003 28.0001Z" stroke="#41C4DA" stroke-width="2" stroke-linecap="round" stroke-linejoin="round"/>
</g>
</svg>
