<svg width="56" height="56" viewBox="0 0 56 56" fill="none" xmlns="http://www.w3.org/2000/svg">
<g id="team meeting">
<path id="Vector" d="M47.6931 33.6292L45.8064 21.932C49.4473 20.6981 52.0761 17.2504 52.0761 13.198C52.0761 8.11334 47.9394 3.97656 42.8547 3.97656C39.272 3.97656 36.1621 6.03172 34.6362 9.02378H21.3637C19.8378 6.03172 16.728 3.97656 13.1452 3.97656C8.0605 3.97656 3.92383 8.11323 3.92383 13.198C3.92383 17.2504 6.55255 20.6981 10.1935 21.932L8.30681 33.6292C3.64995 34.0898 0 38.0288 0 42.8049C0 47.8895 4.13667 52.0263 9.22141 52.0263C12.7617 52.0263 15.8405 50.0198 17.3853 47.0855H38.6147C40.1597 50.0199 43.2383 52.0263 46.7786 52.0263C51.8633 52.0263 56 47.8896 56 42.8049C56 38.0288 52.35 34.0898 47.6931 33.6292ZM42.8548 13.1279C41.7123 13.1279 40.7829 12.1984 40.7829 11.056C40.7829 9.91355 41.7123 8.98408 42.8548 8.98408C43.9972 8.98408 44.9267 9.91355 44.9267 11.056C44.9267 12.1984 43.9972 13.1279 42.8548 13.1279ZM42.8547 14.8779C45.2457 14.8779 47.2627 16.5644 47.7137 18.8663C46.4063 19.9887 44.7089 20.6693 42.8547 20.6693C41.0004 20.6693 39.3031 19.9887 37.9957 18.8663C38.4467 16.5644 40.4636 14.8779 42.8547 14.8779ZM42.8547 5.72656C46.9745 5.72656 50.3261 9.07825 50.3261 13.198C50.3261 14.724 49.8653 16.144 49.0769 17.328C48.4285 15.7075 47.1727 14.415 45.5996 13.7115C46.2656 13.0233 46.6768 12.087 46.6768 11.056C46.6768 8.94853 44.9622 7.23408 42.8549 7.23408C40.7475 7.23408 39.033 8.94853 39.033 11.056C39.033 12.0869 39.4441 13.0233 40.11 13.7115C38.537 14.415 37.281 15.7075 36.6326 17.328C35.8442 16.144 35.3834 14.724 35.3834 13.198C35.3833 9.07825 38.7349 5.72656 42.8547 5.72656ZM13.1453 5.72656C17.2651 5.72656 20.6168 9.07825 20.6168 13.198C20.6168 14.724 20.156 16.144 19.3676 17.328C18.7192 15.7075 17.4634 14.415 15.8903 13.7115C16.5563 13.0233 16.9675 12.087 16.9675 11.056C16.9675 8.94853 15.2529 7.23408 13.1456 7.23408C11.0382 7.23408 9.32345 8.94853 9.32345 11.056C9.32345 12.0869 9.73448 13.0233 10.4005 13.7115C8.82744 14.415 7.57148 15.7075 6.92311 17.3281C6.13462 16.1441 5.67383 14.7241 5.67383 13.1981C5.67383 9.07825 9.02552 5.72656 13.1453 5.72656ZM13.1453 13.1279C12.0029 13.1279 11.0735 12.1984 11.0735 11.056C11.0735 9.91355 12.0029 8.98408 13.1453 8.98408C14.2878 8.98408 15.2172 9.91355 15.2172 11.056C15.2172 12.1984 14.2878 13.1279 13.1453 13.1279ZM13.1453 14.8779C15.5364 14.8779 17.5534 16.5644 18.0043 18.8663C16.6969 19.9887 14.9996 20.6693 13.1453 20.6693C11.2911 20.6693 9.59383 19.9887 8.28636 18.8663C8.73731 16.5644 10.7542 14.8779 13.1453 14.8779ZM4.36231 48.4734C4.81327 46.1714 6.83025 44.4848 9.22141 44.4848C11.6125 44.4848 13.6293 46.1714 14.0804 48.4734C12.7729 49.5958 11.0756 50.2763 9.2213 50.2763C7.36717 50.2763 5.66989 49.5958 4.36231 48.4734ZM7.14952 40.6629C7.14952 39.5205 8.07898 38.591 9.22141 38.591C10.3638 38.591 11.2933 39.5205 11.2933 40.6629C11.2933 41.8053 10.3638 42.7348 9.22141 42.7348C8.07898 42.7348 7.14952 41.8053 7.14952 40.6629ZM15.4435 46.9349C14.7952 45.3144 13.5392 44.0218 11.9663 43.3184C12.6323 42.6302 13.0434 41.694 13.0434 40.6629C13.0434 38.5555 11.3288 36.841 9.22152 36.841C7.11419 36.841 5.39962 38.5555 5.39962 40.6629C5.39962 41.6939 5.81066 42.6302 6.47664 43.3184C4.90361 44.0219 3.64766 45.3144 2.99928 46.935C2.2108 45.7509 1.75 44.331 1.75 42.8049C1.75 38.6852 5.10169 35.3335 9.22141 35.3335C13.3412 35.3335 16.6928 38.6852 16.6928 42.8049C16.6928 44.3309 16.232 45.7509 15.4435 46.9349ZM18.0869 45.3354C18.3169 44.5307 18.4428 43.6824 18.4428 42.8049C18.4428 38.01 14.7637 34.0597 10.0802 33.625L11.9015 22.3331C12.3086 22.3882 12.7233 22.4193 13.1453 22.4193C18.23 22.4193 22.3668 18.2826 22.3668 13.1979C22.3668 12.359 22.252 11.5467 22.0411 10.7738H33.959C33.7481 11.5467 33.6334 12.359 33.6334 13.1979C33.6334 18.2825 37.77 22.4193 42.8548 22.4193C43.2767 22.4193 43.6914 22.3882 44.0986 22.3331L45.9199 33.625C41.2366 34.0597 37.5574 38.01 37.5574 42.8049C37.5574 43.6825 37.6833 44.5307 37.9133 45.3354H18.0869ZM46.7786 35.3336C50.8984 35.3336 54.25 38.6853 54.25 42.805C54.25 44.331 53.7892 45.751 53.0008 46.935C52.3525 45.3145 51.0965 44.0219 49.5236 43.3185C50.1896 42.6303 50.6007 41.6941 50.6007 40.663C50.6007 38.5556 48.8861 36.8411 46.7788 36.8411C44.6715 36.8411 42.9569 38.5556 42.9569 40.663C42.9569 41.694 43.368 42.6303 44.0339 43.3185C42.4609 44.022 41.205 45.3146 40.5566 46.9351C39.7681 45.7511 39.3073 44.3311 39.3073 42.8051C39.3072 38.6852 42.6589 35.3336 46.7786 35.3336ZM44.7068 40.6629C44.7068 39.5205 45.6363 38.591 46.7787 38.591C47.9211 38.591 48.8506 39.5205 48.8506 40.6629C48.8506 41.8053 47.9211 42.7348 46.7787 42.7348C45.6363 42.7348 44.7068 41.8053 44.7068 40.6629ZM41.9196 48.4734C42.3707 46.1714 44.3877 44.4848 46.7787 44.4848C49.1698 44.4848 51.1867 46.1714 51.6378 48.4734C50.3303 49.5958 48.6329 50.2763 46.7787 50.2763C44.9244 50.2763 43.2271 49.5958 41.9196 48.4734Z" fill="#41C4DA"/>
</g>
</svg>
