<svg width="96" height="96" viewBox="0 0 96 96" fill="none" xmlns="http://www.w3.org/2000/svg">
<g id="shopping-cart-01">
<path id="Icon" d="M8 7.99194H13.2247C14.2087 7.99194 14.7008 7.99194 15.0967 8.1729C15.4457 8.33237 15.7414 8.58884 15.9486 8.91172C16.1837 9.27812 16.2533 9.76522 16.3925 10.7394L18.2857 23.9919M18.2857 23.9919L22.4933 54.9175C23.0272 58.842 23.2942 60.8043 24.2324 62.2813C25.0591 63.5828 26.2443 64.6177 27.6454 65.2614C29.2355 65.9919 31.2158 65.9919 35.1764 65.9919H69.408C73.1782 65.9919 75.0633 65.9919 76.6038 65.3136C77.9622 64.7155 79.1274 63.7513 79.9691 62.5288C80.9237 61.1424 81.2765 59.2906 81.9819 55.587L87.2764 27.7907C87.5247 26.4872 87.6489 25.8354 87.4689 25.3259C87.3111 24.879 86.9997 24.5027 86.5902 24.264C86.1234 23.9919 85.4599 23.9919 84.1329 23.9919H18.2857ZM40 83.9919C40 86.2011 38.2091 87.9919 36 87.9919C33.7909 87.9919 32 86.2011 32 83.9919C32 81.7828 33.7909 79.9919 36 79.9919C38.2091 79.9919 40 81.7828 40 83.9919ZM72 83.9919C72 86.2011 70.2091 87.9919 68 87.9919C65.7909 87.9919 64 86.2011 64 83.9919C64 81.7828 65.7909 79.9919 68 79.9919C70.2091 79.9919 72 81.7828 72 83.9919Z" stroke="white" stroke-width="2.25" stroke-linecap="round" stroke-linejoin="round"/>
</g>
</svg>
