<svg width="26" height="27" viewBox="0 0 26 27" fill="none" xmlns="http://www.w3.org/2000/svg">
<g id="Icon">
<path d="M1 7.4C1 5.15979 1 4.03968 1.43597 3.18404C1.81947 2.43139 2.43139 1.81947 3.18404 1.43597C4.03969 1 5.15979 1 7.4 1H18.6C20.8402 1 21.9603 1 22.816 1.43597C23.5686 1.81947 24.1805 2.43139 24.564 3.18404C25 4.03968 25 5.15979 25 7.4V14.6C25 16.8402 25 17.9603 24.564 18.816C24.1805 19.5686 23.5686 20.1805 22.816 20.564C21.9603 21 20.8402 21 18.6 21H15.245C14.4129 21 13.9969 21 13.599 21.0817C13.2459 21.1541 12.9043 21.274 12.5833 21.4379C12.2216 21.6228 11.8967 21.8826 11.247 22.4024L8.06634 24.9469C7.51156 25.3908 7.23417 25.6127 7.00072 25.6129C6.79769 25.6131 6.60563 25.5208 6.47897 25.3622C6.33333 25.1797 6.33333 24.8245 6.33333 24.114V21C5.09337 21 4.47339 21 3.96472 20.8637C2.58436 20.4938 1.50617 19.4156 1.1363 18.0353C1 17.5266 1 16.9066 1 15.6667V7.4Z" stroke="#41C4DA" stroke-width="2" stroke-linecap="round" stroke-linejoin="round"/>
<path fill-rule="evenodd" clip-rule="evenodd" d="M12.9959 7.26567C11.7963 5.88053 9.79585 5.50794 8.29282 6.7763C6.78979 8.04467 6.57818 10.1653 7.75852 11.6654C8.48978 12.5948 10.3252 14.2922 11.6159 15.4493C12.0901 15.8743 12.3271 16.0868 12.6116 16.1724C12.8557 16.2459 13.1361 16.2459 13.3801 16.1724C13.6647 16.0868 13.9017 15.8743 14.3758 15.4493C15.6666 14.2922 17.502 12.5948 18.2333 11.6654C19.4136 10.1653 19.2278 8.03133 17.699 6.7763C16.1701 5.52128 14.1955 5.88053 12.9959 7.26567Z" stroke="#41C4DA" stroke-width="2" stroke-linecap="round" stroke-linejoin="round"/>
</g>
</svg>
