<svg width="26" height="27" viewBox="0 0 26 27" fill="none" xmlns="http://www.w3.org/2000/svg">
<g id="link-03">
<path id="Icon" d="M10.8331 14.8725C11.2983 15.4945 11.8919 16.0091 12.5735 16.3815C13.2551 16.7539 14.0089 16.9754 14.7836 17.0309C15.5583 17.0864 16.3359 16.9746 17.0637 16.7031C17.7914 16.4317 18.4523 16.0068 19.0014 15.4575L22.2514 12.2075C23.2381 11.1859 23.7841 9.81766 23.7717 8.39743C23.7594 6.9772 23.1897 5.61863 22.1854 4.61434C21.1811 3.61004 19.8225 3.04038 18.4023 3.02804C16.9821 3.0157 15.6138 3.56166 14.5922 4.54835L12.7289 6.40085M15.1664 12.7059C14.7012 12.0839 14.1076 11.5692 13.426 11.1968C12.7443 10.8244 11.9906 10.603 11.2159 10.5475C10.4411 10.492 9.66351 10.6038 8.93577 10.8753C8.20803 11.1467 7.54719 11.5715 6.99806 12.1209L3.74806 15.3709C2.76137 16.3925 2.2154 17.7607 2.22774 19.1809C2.24009 20.6012 2.80975 21.9597 3.81404 22.964C4.81834 23.9683 6.17691 24.538 7.59714 24.5503C9.01737 24.5627 10.3856 24.0167 11.4072 23.03L13.2597 21.1775" stroke="#41C4DA" stroke-width="1.6" stroke-linecap="round" stroke-linejoin="round"/>
</g>
</svg>
