<svg width="42" height="45" viewBox="0 0 42 45" fill="none" xmlns="http://www.w3.org/2000/svg">
<g id="Group">
<path id="Vector" d="M20.7693 3.97917C21.768 3.97917 22.5776 3.19071 22.5776 2.2181C22.5776 1.24549 21.768 0.457031 20.7693 0.457031C19.7706 0.457031 18.9609 1.24549 18.9609 2.2181C18.9609 3.19071 19.7706 3.97917 20.7693 3.97917Z" fill="#41C4DA"/>
<path id="Vector_2" d="M38.9724 14.0182C39.9711 14.0182 40.7807 13.2298 40.7807 12.2572C40.7807 11.2846 39.9711 10.4961 38.9724 10.4961C37.9737 10.4961 37.1641 11.2846 37.1641 12.2572C37.1641 13.2298 37.9737 14.0182 38.9724 14.0182Z" fill="#41C4DA"/>
<path id="Vector_3" d="M39.0701 34.5846C40.0688 34.5846 40.8784 33.7962 40.8784 32.8236C40.8784 31.851 40.0688 31.0625 39.0701 31.0625C38.0713 31.0625 37.2617 31.851 37.2617 32.8236C37.2617 33.7962 38.0713 34.5846 39.0701 34.5846Z" fill="#41C4DA"/>
<path id="Vector_4" d="M26.7451 7.91335L25.9145 8.42632C25.9145 8.42632 24.5951 9.36009 24.2218 9.42664C23.6667 9.52494 23.0685 8.91471 21.8542 8.86658C20.5148 8.81334 19.4844 9.0519 18.8116 9.89148C18.8116 9.89148 16.773 11.5573 18.3511 13.9266C18.3511 13.9266 19.272 15.6242 21.8374 15.016C21.8374 15.016 24.7812 14.6802 24.9452 11.7652C24.9452 11.7652 24.9893 10.8908 25.597 10.3829C25.7295 10.2724 28.257 8.62188 28.257 8.62188C28.257 8.62188 28.5314 8.40891 28.6575 8.40686C28.8026 8.40379 28.8709 8.46625 29.1958 8.57375C29.6742 8.73246 30.4185 8.84918 31.1776 8.45089C31.1776 8.45089 32.802 7.37786 31.5067 5.7284C31.5067 5.7284 30.224 4.30316 28.6123 5.47243C28.6123 5.47243 28.135 5.71509 27.9426 6.46866C27.8984 6.64272 27.971 6.86797 27.8648 7.0748C27.8637 7.07685 27.4337 7.39834 27.4337 7.39834L26.7462 7.9154L26.7451 7.91335Z" fill="#41C4DA"/>
<path id="Vector_5" d="M6.14319 21.0632L6.99689 20.5871C6.99689 20.5871 8.3584 19.7117 8.73479 19.6615C9.29411 19.5878 9.86395 20.2236 11.0751 20.325C12.4114 20.4366 13.4501 20.2441 14.1608 19.4342C14.1608 19.4342 16.2741 17.8595 14.8064 15.4227C14.8064 15.4227 13.9642 13.6872 11.3737 14.1828C11.3737 14.1828 8.41728 14.3906 8.11974 17.2953C8.11974 17.2953 8.03563 18.1667 7.40482 18.6479C7.26709 18.7523 4.66603 20.2922 4.66603 20.2922C4.66603 20.2922 4.38216 20.4929 4.256 20.4898C4.11091 20.4857 4.04468 20.4212 3.72612 20.2994C3.25616 20.1202 2.51705 19.9718 1.7401 20.3363C1.7401 20.3363 0.0684406 21.3376 1.28591 23.0413C1.28591 23.0413 2.50128 24.5208 4.16558 23.4232C4.16558 23.4232 4.65341 23.2011 4.88051 22.4577C4.93307 22.2857 4.86999 22.0574 4.98669 21.8557C4.98775 21.8536 5.43247 21.5506 5.43247 21.5506L6.14319 21.0642V21.0632Z" fill="#708090"/>
<path id="Vector_6" d="M6.14319 31.3132L6.99689 30.8371C6.99689 30.8371 8.3584 29.9617 8.73479 29.9115C9.29411 29.8378 9.86395 30.4736 11.0751 30.575C12.4114 30.6866 13.4501 30.4941 14.1608 29.6842C14.1608 29.6842 16.2741 28.1095 14.8064 25.6727C14.8064 25.6727 13.9642 23.9372 11.3737 24.4328C11.3737 24.4328 8.41728 24.6406 8.11974 27.5453C8.11974 27.5453 8.03563 28.4167 7.40482 28.8979C7.26709 29.0023 4.66603 30.5422 4.66603 30.5422C4.66603 30.5422 4.38216 30.7429 4.256 30.7398C4.11091 30.7357 4.04468 30.6712 3.72612 30.5494C3.25616 30.3702 2.51705 30.2218 1.7401 30.5863C1.7401 30.5863 0.0684406 31.5876 1.28591 33.2913C1.28591 33.2913 2.50128 34.7708 4.16558 33.6732C4.16558 33.6732 4.65341 33.4511 4.88051 32.7077C4.93307 32.5357 4.86999 32.3074 4.98669 32.1057C4.98775 32.1036 5.43247 31.8006 5.43247 31.8006L6.14319 31.3142V31.3132Z" fill="#708090"/>
<path id="Vector_7" d="M15.1549 36.1804L16.0086 35.7043C16.0086 35.7043 17.3701 34.8289 17.7465 34.7787C18.3058 34.705 18.8757 35.3408 20.0868 35.4422C21.4231 35.5538 22.4618 35.3613 23.1726 34.5514C23.1726 34.5514 25.2858 32.9767 23.8181 30.5399C23.8181 30.5399 22.976 28.8044 20.3854 29.2999C20.3854 29.2999 17.429 29.5078 17.1315 32.4125C17.1315 32.4125 17.0474 33.2838 16.4165 33.7651C16.2788 33.8695 13.6777 35.4094 13.6777 35.4094C13.6777 35.4094 13.3939 35.6101 13.2677 35.607C13.1226 35.6029 13.0564 35.5384 12.7378 35.4166C12.2679 35.2374 11.5288 35.0889 10.7518 35.4534C10.7518 35.4534 9.08016 36.4548 10.2976 38.1585C10.2976 38.1585 11.513 39.638 13.1773 38.5404C13.1773 38.5404 13.6651 38.3183 13.8922 37.5749C13.9448 37.4029 13.8817 37.1746 13.9984 36.9729C13.9995 36.9708 14.4442 36.6678 14.4442 36.6678L15.1549 36.1814V36.1804Z" fill="#708090"/>
<path id="Vector_8" d="M24.6256 20.8718L25.4793 20.3957C25.4793 20.3957 26.8408 19.5203 27.2172 19.4701C27.7765 19.3964 28.3464 20.0322 29.5575 20.1336C30.8938 20.2452 31.9325 20.0527 32.6433 19.2428C32.6433 19.2428 34.7565 17.6681 33.2888 15.2313C33.2888 15.2313 32.4467 13.4958 29.8561 13.9913C29.8561 13.9913 26.8997 14.1992 26.6022 17.1039C26.6022 17.1039 26.5181 17.9753 25.8872 18.4565C25.7495 18.5609 23.1485 20.1008 23.1485 20.1008C23.1485 20.1008 22.8646 20.3015 22.7384 20.2984C22.5933 20.2943 22.5271 20.2298 22.2085 20.108C21.7386 19.9288 20.9995 19.7803 20.2225 20.1448C20.2225 20.1448 18.5509 21.1462 19.7683 22.8499C19.7683 22.8499 20.9837 24.3294 22.648 23.2318C22.648 23.2318 23.1358 23.0097 23.3629 22.2663C23.4155 22.0943 23.3524 21.866 23.4691 21.6643C23.4702 21.6622 23.9149 21.3592 23.9149 21.3592L24.6256 20.8728V20.8718Z" fill="#41C4DA"/>
<path id="Vector_9" d="M20.652 25.4844C22.3777 25.4844 23.7766 24.122 23.7766 22.4414C23.7766 20.7608 22.3777 19.3984 20.652 19.3984C18.9263 19.3984 17.5273 20.7608 17.5273 22.4414C17.5273 24.122 18.9263 25.4844 20.652 25.4844Z" fill="#41C4DA"/>
<path id="Vector_10" d="M30.5345 30.0464C30.5345 30.0464 33.0283 29.6143 33.0178 27.1201C33.0178 27.1201 33.0104 26.3717 33.5025 25.9089C33.5666 25.8485 34.4571 25.1256 35.0785 24.6557L35.5894 24.3239C35.5894 24.3239 36.4873 23.6584 36.7438 23.6072C37.1254 23.5314 37.5491 23.9441 38.3892 23.9594C39.3165 23.9758 40.024 23.7966 40.4761 23.2059C40.4761 23.2059 41.8597 22.0243 40.7305 20.4096C40.7305 20.4096 40.0671 19.2496 38.303 19.7093C38.303 19.7093 36.2738 19.9858 36.2055 22.0028C36.2055 22.0028 36.1887 22.6079 35.7766 22.9683C35.724 23.0144 35.1079 23.4403 34.6085 23.7843L34.599 23.771C34.599 23.771 32.592 25.0877 32.2766 25.1615C31.8087 25.272 31.2652 24.7806 30.2275 24.8C29.0815 24.8205 28.2152 25.0744 27.6853 25.8239C27.6853 25.8239 26.0315 27.3454 27.5013 29.2897C27.5013 29.2897 28.375 30.6924 30.5324 30.0474L30.5345 30.0464Z" fill="#41C4DA"/>
<path id="Vector_11" d="M13.3482 5.97553C13.3482 5.97553 12.811 5.03561 11.3801 5.40728C11.3801 5.40728 9.7347 5.63151 9.68003 7.26664C9.68003 7.26664 9.66636 7.75708 9.33203 8.04888C9.28892 8.08677 5.2822 10.9331 5.07613 10.9843C4.77019 11.0601 4.41062 10.7417 3.72934 10.7611C2.97762 10.7826 2.41199 10.9546 2.06925 11.4502C2.06925 11.4502 0.995809 12.4597 1.97357 13.7242C1.97357 13.7242 2.55708 14.6386 3.96695 14.2003C3.96695 14.2003 5.59971 13.9003 5.57447 12.2642C5.57447 12.2642 5.56396 11.7737 5.88357 11.4666C5.92458 11.4277 9.90712 8.60997 10.1153 8.56799C10.4254 8.50656 10.7682 8.84136 11.4495 8.85365C12.2012 8.86696 12.7752 8.72157 13.1411 8.24239C13.1411 8.24239 14.2629 7.28405 13.3472 5.97553H13.3482Z" fill="#708090"/>
<path id="Vector_12" d="M31.4459 36.7477C31.4459 36.7477 30.9707 35.7761 29.5187 36.0597C29.5187 36.0597 27.8618 36.1815 27.7009 37.8105C27.7009 37.8105 27.6557 38.2989 27.3035 38.5702C27.2583 38.6051 23.0739 41.1985 22.8647 41.2374C22.5545 41.2938 22.216 40.9548 21.5347 40.9313C20.784 40.9067 20.2068 41.0429 19.8336 41.517C19.8336 41.517 18.6971 42.4579 19.5908 43.7808C19.5908 43.7808 20.1133 44.7289 21.5494 44.3787C21.5494 44.3787 23.198 44.1801 23.2789 42.5449C23.2789 42.5449 23.2999 42.0545 23.6395 41.7678C23.6826 41.7309 27.8408 39.1651 28.051 39.1364C28.3643 39.0945 28.685 39.4497 29.3642 39.504C30.1127 39.5634 30.6952 39.4538 31.0926 38.9982C31.0926 38.9982 32.2743 38.1115 31.4459 36.7488V36.7477Z" fill="#708090"/>
</g>
</svg>
