<svg width="30" height="30" viewBox="0 0 30 30" fill="none" xmlns="http://www.w3.org/2000/svg">
<path id="Icon" d="M12.3327 19L8.23234 23.1516C7.6604 23.7306 7.37442 24.0202 7.12862 24.0406C6.91537 24.0583 6.70657 23.9726 6.56729 23.8101C6.40676 23.6229 6.40676 23.2159 6.40676 22.402V20.3221C6.40676 19.5919 5.80878 19.0636 5.08629 18.9577V18.9577C3.33767 18.7016 1.96438 17.3283 1.70825 15.5797C1.66602 15.2914 1.66602 14.9473 1.66602 14.2592V8.06663C1.66602 5.82642 1.66602 4.70631 2.10199 3.85066C2.48548 3.09802 3.09741 2.48609 3.85005 2.1026C4.7057 1.66663 5.82581 1.66663 8.06602 1.66663H17.9327C20.1729 1.66663 21.293 1.66663 22.1486 2.1026C22.9013 2.48609 23.5132 3.09802 23.8967 3.85066C24.3327 4.70631 24.3327 5.82642 24.3327 8.06663V13.6666M24.3327 28.3333L21.4308 26.3158C21.0229 26.0322 20.8189 25.8904 20.597 25.7899C20.3999 25.7006 20.1928 25.6357 19.9801 25.5965C19.7405 25.5523 19.4921 25.5523 18.9952 25.5523H16.5993C15.1059 25.5523 14.3591 25.5523 13.7887 25.2617C13.2869 25.006 12.879 24.5981 12.6233 24.0963C12.3327 23.5259 12.3327 22.7791 12.3327 21.2857V17.9333C12.3327 16.4398 12.3327 15.6931 12.6233 15.1227C12.879 14.6209 13.2869 14.2129 13.7887 13.9573C14.3591 13.6666 15.1059 13.6666 16.5993 13.6666H24.066C25.5595 13.6666 26.3062 13.6666 26.8767 13.9573C27.3784 14.2129 27.7864 14.6209 28.042 15.1227C28.3327 15.6931 28.3327 16.4398 28.3327 17.9333V21.5523C28.3327 22.7949 28.3327 23.4161 28.1297 23.9062C27.859 24.5596 27.3399 25.0787 26.6865 25.3494C26.1965 25.5523 25.5752 25.5523 24.3327 25.5523V28.3333Z" stroke="white" stroke-width="2" stroke-linecap="round" stroke-linejoin="round"/>
</svg>
