<svg width="20" height="20" viewBox="0 0 20 20" fill="none" xmlns="http://www.w3.org/2000/svg">
<g id="Frame" clip-path="url(#clip0_2071_7707)">
<path id="Vector" d="M8.79259 5.19823L5.97342 1.94407C5.64842 1.56907 5.05259 1.57073 4.67509 1.94907L2.35676 4.27157C1.66676 4.9624 1.46926 5.98823 1.86842 6.81073C4.2531 11.7482 8.23513 15.7358 13.1693 18.1274C13.9909 18.5266 15.0159 18.3291 15.7059 17.6382L18.0459 15.2941C18.4251 14.9149 18.4259 14.3157 18.0476 13.9907L14.7809 11.1866C14.4393 10.8932 13.9084 10.9316 13.5659 11.2749L12.4293 12.4132C12.3711 12.4742 12.2945 12.5144 12.2112 12.5277C12.128 12.5409 12.0427 12.5265 11.9684 12.4866C10.1105 11.4166 8.56925 9.87343 7.50176 8.01407C7.46178 7.93969 7.4473 7.85426 7.46055 7.77086C7.4738 7.68747 7.51403 7.61073 7.57509 7.5524L8.70842 6.41823C9.05176 6.07323 9.08926 5.5399 8.79259 5.1974V5.19823Z" stroke="#41C4DA" stroke-width="2" stroke-linecap="round" stroke-linejoin="round"/>
</g>
<defs>
<clipPath id="clip0_2071_7707">
<rect width="20" height="20" fill="white"/>
</clipPath>
</defs>
</svg>
