<svg width="32" height="33" viewBox="0 0 32 33" fill="none" xmlns="http://www.w3.org/2000/svg">
<g id="Frame" opacity="0.8">
<path id="Vector" d="M14.0697 8.94374L9.55904 3.73707C9.03904 3.13707 8.08571 3.13974 7.48171 3.74507L3.77237 7.46107C2.66837 8.5664 2.35237 10.2077 2.99104 11.5237C6.80653 19.4237 13.1778 25.8039 21.0724 29.6304C22.387 30.2691 24.027 29.9531 25.131 28.8477L28.875 25.0971C29.4817 24.4904 29.483 23.5317 28.8777 23.0117L23.651 18.5251C23.1044 18.0557 22.255 18.1171 21.707 18.6664L19.8884 20.4877C19.7953 20.5853 19.6727 20.6496 19.5395 20.6708C19.4063 20.692 19.2698 20.6689 19.151 20.6051C16.1783 18.8932 13.7124 16.424 12.0044 13.4491C11.9404 13.3301 11.9172 13.1934 11.9384 13.0599C11.9596 12.9265 12.024 12.8037 12.1217 12.7104L13.935 10.8957C14.4844 10.3437 14.5444 9.4904 14.0697 8.9424V8.94374Z" stroke="white" stroke-width="2" stroke-linecap="round" stroke-linejoin="round"/>
</g>
</svg>
