<svg width="34" height="34" viewBox="0 0 34 34" fill="none" xmlns="http://www.w3.org/2000/svg">
<g id="Icon">
<path id="Vector" d="M9.27751 17.0002C9.27751 13.2122 9.26834 9.41507 9.27751 5.6271C9.27751 4.06789 10.0663 2.93058 11.4512 2.48116C11.7814 2.3711 12.1391 2.32524 12.4877 2.32524C15.6886 2.31607 18.8804 2.31607 22.0722 2.32524C23.9341 2.33441 25.2915 3.68267 25.2915 5.53538C25.3007 13.1755 25.3007 20.8157 25.2915 28.465C25.2915 30.3177 23.9341 31.6751 22.0814 31.6751C18.9171 31.6843 15.7528 31.6843 12.5885 31.6751C10.6074 31.6751 9.28669 30.3727 9.28669 28.3733C9.26834 24.5761 9.27751 20.7881 9.27751 17.0002ZM17.2937 4.98507C16.67 4.98507 16.0463 4.98507 15.4226 4.98507C14.9274 4.99424 14.6522 5.22354 14.643 5.6271C14.6339 6.03983 14.8907 6.32416 15.3676 6.32416C16.6517 6.3425 17.9266 6.3425 19.2106 6.32416C19.6692 6.31499 19.981 6.00314 19.9627 5.6271C19.9444 5.24188 19.6417 4.98507 19.1739 4.98507C18.5411 4.98507 17.9174 4.98507 17.2937 4.98507ZM17.2937 26.3463C16.5416 26.3463 15.9454 26.9333 15.9546 27.6762C15.9638 28.4099 16.5783 29.0061 17.312 28.9969C18.0274 28.9878 18.6053 28.4099 18.6144 27.6854C18.6144 26.9241 18.0458 26.3555 17.2937 26.3463Z" fill="white"/>
</g>
</svg>
