<svg width="26" height="30" viewBox="0 0 26 30" fill="none" xmlns="http://www.w3.org/2000/svg">
<g id="Icon">
<path d="M9.52737 24.8281L10.3066 26.5807C10.5383 27.1024 10.9163 27.5457 11.3949 27.8568C11.8735 28.1678 12.4321 28.3334 13.0029 28.3333C13.5737 28.3334 14.1323 28.1678 14.6109 27.8568C15.0895 27.5457 15.4676 27.1024 15.6992 26.5807L16.4785 24.8281C16.7559 24.2062 17.2225 23.6878 17.8118 23.3466C18.4049 23.0045 19.0909 22.8588 19.7718 22.9303L21.6785 23.1333C22.246 23.1933 22.8188 23.0874 23.3274 22.8284C23.836 22.5694 24.2585 22.1684 24.5437 21.674C24.8292 21.18 24.9653 20.6137 24.9353 20.0438C24.9053 19.4739 24.7106 18.925 24.3748 18.4637L23.2459 16.9126C22.8439 16.3561 22.6291 15.6864 22.6326 15C22.6324 14.3154 22.8492 13.6484 23.2518 13.0948L24.3807 11.5437C24.7165 11.0823 24.9113 10.5334 24.9412 9.96352C24.9712 9.39366 24.8352 8.82735 24.5496 8.33329C24.2644 7.83894 23.8419 7.43795 23.3333 7.17893C22.8248 6.91991 22.252 6.814 21.6844 6.87403L19.7777 7.077C19.0969 7.1485 18.4108 7.00279 17.8177 6.6607C17.2272 6.31763 16.7605 5.79644 16.4844 5.17181L15.6992 3.41922C15.4676 2.89752 15.0895 2.45425 14.6109 2.14316C14.1323 1.83207 13.5737 1.66653 13.0029 1.66663C12.4321 1.66653 11.8735 1.83207 11.3949 2.14316C10.9163 2.45425 10.5383 2.89752 10.3066 3.41922L9.52737 5.17181C9.25128 5.79644 8.78454 6.31763 8.19404 6.6607C7.60099 7.00279 6.91493 7.1485 6.23404 7.077L4.32145 6.87403C3.75389 6.814 3.1811 6.91991 2.67253 7.17893C2.16397 7.43795 1.74147 7.83894 1.45626 8.33329C1.17069 8.82735 1.03464 9.39366 1.06462 9.96352C1.0946 10.5334 1.28932 11.0823 1.62515 11.5437L2.75404 13.0948C3.15663 13.6484 3.37342 14.3154 3.3733 15C3.37342 15.6845 3.15663 16.3515 2.75404 16.9051L1.62515 18.4563C1.28932 18.9176 1.0946 19.4665 1.06462 20.0364C1.03464 20.6063 1.17069 21.1726 1.45626 21.6666C1.74175 22.1607 2.1643 22.5615 2.67279 22.8205C3.18129 23.0795 3.75393 23.1855 4.32145 23.1259L6.22811 22.9229C6.90901 22.8514 7.59507 22.9971 8.18812 23.3392C8.78082 23.6813 9.24973 24.2026 9.52737 24.8281Z" stroke="white" stroke-width="2" stroke-linecap="round" stroke-linejoin="round"/>
<path d="M13.0005 19C15.2097 19 17.0005 17.2091 17.0005 15C17.0005 12.7908 15.2097 11 13.0005 11C10.7914 11 9.00055 12.7908 9.00055 15C9.00055 17.2091 10.7914 19 13.0005 19Z" stroke="white" stroke-width="2" stroke-linecap="round" stroke-linejoin="round"/>
</g>
</svg>
