<svg width="34" height="34" viewBox="0 0 34 34" fill="none" xmlns="http://www.w3.org/2000/svg">
<g id="settings-03">
<g id="Icon">
<path d="M9.20833 29.75C6.46992 29.75 4.25 27.5301 4.25 24.7917C4.25 22.0533 6.46992 19.8333 9.20833 19.8333C11.9467 19.8333 14.1667 22.0533 14.1667 24.7917C14.1667 27.5301 11.9467 29.75 9.20833 29.75Z" fill="white"/>
<path d="M24.7917 14.1667C27.5301 14.1667 29.75 11.9467 29.75 9.20833C29.75 6.46992 27.5301 4.25 24.7917 4.25C22.0533 4.25 19.8333 6.46992 19.8333 9.20833C19.8333 11.9467 22.0533 14.1667 24.7917 14.1667Z" fill="white"/>
<path d="M21.3216 12.75H7.79167C5.83566 12.75 4.25 11.1643 4.25 9.20833C4.25 7.25232 5.83566 5.66667 7.79167 5.66667H21.3216M12.6784 28.3333H26.2083C28.1643 28.3333 29.75 26.7477 29.75 24.7917C29.75 22.8357 28.1643 21.25 26.2083 21.25H12.6784M4.25 24.7917C4.25 27.5301 6.46992 29.75 9.20833 29.75C11.9467 29.75 14.1667 27.5301 14.1667 24.7917C14.1667 22.0533 11.9467 19.8333 9.20833 19.8333C6.46992 19.8333 4.25 22.0533 4.25 24.7917ZM29.75 9.20833C29.75 11.9467 27.5301 14.1667 24.7917 14.1667C22.0533 14.1667 19.8333 11.9467 19.8333 9.20833C19.8333 6.46992 22.0533 4.25 24.7917 4.25C27.5301 4.25 29.75 6.46992 29.75 9.20833Z" stroke="white" stroke-width="2" stroke-linecap="round" stroke-linejoin="round"/>
</g>
</g>
</svg>
