<svg width="32" height="30" viewBox="0 0 32 30" fill="none" xmlns="http://www.w3.org/2000/svg">
<g id="Microsoft_Office_Teams_Logo 1" clip-path="url(#clip0_428_4707)">
<path id="Vector" d="M22.32 11.1641H30.5857C31.3666 11.1641 31.9997 11.7971 31.9997 12.578V20.1069C31.9997 22.977 29.6731 25.3036 26.803 25.3036H26.7785C23.9084 25.304 21.5815 22.9777 21.5811 20.1077C21.5811 20.1074 21.5811 20.1072 21.5811 20.1069V11.903C21.5811 11.4949 21.9119 11.1641 22.32 11.1641Z" fill="#E0E0E0"/>
<path id="Vector_2" d="M27.9074 9.67424C29.7569 9.67424 31.2563 8.17491 31.2563 6.3254C31.2563 4.47589 29.7569 2.97656 27.9074 2.97656C26.0579 2.97656 24.5586 4.47589 24.5586 6.3254C24.5586 8.17491 26.0579 9.67424 27.9074 9.67424Z" fill="#E0E0E0"/>
<path id="Vector_3" d="M17.4886 9.67443C20.1601 9.67443 22.3258 7.50873 22.3258 4.83721C22.3258 2.16569 20.1601 0 17.4886 0C14.8171 0 12.6514 2.16569 12.6514 4.83721C12.6514 7.50873 14.8171 9.67443 17.4886 9.67443Z" fill="white"/>
<path id="Vector_4" d="M23.9381 11.1641H10.2941C9.52253 11.1832 8.91215 11.8235 8.93005 12.5951V21.1823C8.8223 25.8128 12.4857 29.6554 17.1161 29.7687C21.7465 29.6554 25.4099 25.8128 25.3022 21.1823V12.5951C25.32 11.8235 24.7097 11.1832 23.9381 11.1641Z" fill="white"/>
<path id="Vector_5" opacity="0.1" d="M17.8603 11.1641V23.1976C17.8566 23.7494 17.5222 24.2451 17.0119 24.4552C16.8495 24.524 16.6749 24.5594 16.4985 24.5594H9.58496C9.48822 24.3138 9.39892 24.0682 9.32449 23.8152C9.064 22.9613 8.93108 22.0736 8.93007 21.1808V12.5929C8.91218 11.8225 9.52156 11.1832 10.2919 11.1641H17.8603Z" fill="black" fill-opacity="0.4"/>
<path id="Vector_6" opacity="0.2" d="M17.1161 11.1641V23.9417C17.1161 24.1181 17.0807 24.2928 17.0119 24.4552C16.8018 24.9655 16.3061 25.2999 15.7543 25.3036H9.93474C9.80822 25.058 9.68915 24.8124 9.58496 24.5594C9.48077 24.3064 9.39892 24.0683 9.32449 23.8152C9.064 22.9613 8.93108 22.0736 8.93007 21.1808V12.5929C8.91218 11.8225 9.52156 11.1832 10.2919 11.1641H17.1161Z" fill="black" fill-opacity="0.3"/>
<path id="Vector_7" opacity="0.2" d="M17.1161 11.1641V22.4534C17.1105 23.2032 16.504 23.8096 15.7543 23.8152H9.32449C9.064 22.9613 8.93108 22.0736 8.93007 21.1808V12.5929C8.91218 11.8225 9.52156 11.1832 10.2919 11.1641H17.1161Z" fill="black" fill-opacity="0.3"/>
<path id="Vector_8" opacity="0.2" d="M16.3719 11.1641V22.4534C16.3663 23.2032 15.7598 23.8096 15.0101 23.8152H9.32449C9.064 22.9613 8.93108 22.0736 8.93007 21.1808V12.5929C8.91218 11.8225 9.52156 11.1832 10.2919 11.1641H16.3719Z" fill="black" fill-opacity="0.3"/>
<path id="Vector_9" opacity="0.1" d="M17.8605 7.31497V9.65916C17.734 9.66659 17.6149 9.67405 17.4884 9.67405C17.3619 9.67405 17.2428 9.66661 17.1163 9.65916C16.8651 9.64249 16.616 9.60263 16.3721 9.54009C14.8652 9.18321 13.6201 8.12634 13.0233 6.69731C12.9206 6.45732 12.8409 6.20814 12.7852 5.95312H16.4986C17.2496 5.95597 17.8577 6.56401 17.8605 7.31497Z" fill="black"/>
<path id="Vector_10" opacity="0.2" d="M17.1165 8.06106V9.66107C16.8653 9.6444 16.6161 9.60455 16.3723 9.54201C14.8653 9.18513 13.6203 8.12826 13.0234 6.69922H15.7546C16.5055 6.70206 17.1136 7.31012 17.1165 8.06106Z" fill="black"/>
<path id="Vector_11" opacity="0.2" d="M17.1165 8.06106V9.66107C16.8653 9.6444 16.6161 9.60455 16.3723 9.54201C14.8653 9.18513 13.6203 8.12826 13.0234 6.69922H15.7546C16.5055 6.70206 17.1136 7.31012 17.1165 8.06106Z" fill="black" fill-opacity="0.3"/>
<path id="Vector_12" opacity="0.2" d="M16.3723 8.06108V9.542C14.8653 9.18513 13.6203 8.12826 13.0234 6.69922H15.0104C15.7614 6.70208 16.3694 7.31014 16.3723 8.06108Z" fill="black"/>
<path id="Vector_13" d="M1.36409 6.69922H15.008C15.7614 6.69922 16.3721 7.30995 16.3721 8.0633V21.7072C16.3721 22.4606 15.7613 23.0713 15.008 23.0713H1.36409C0.610716 23.0713 0 22.4606 0 21.7072V8.0633C0 7.30995 0.61073 6.69922 1.36409 6.69922Z" fill="url(#paint0_linear_428_4707)"/>
<path id="Vector_14" d="M11.7756 11.89H9.04816V19.3169H7.31049V11.89H4.5957V10.4492H11.7756V11.89Z" fill="#0A1C29"/>
</g>
<defs>
<linearGradient id="paint0_linear_428_4707" x1="2.84416" y1="5.63334" x2="13.5279" y2="24.1372" gradientUnits="userSpaceOnUse">
<stop stop-color="white"/>
<stop offset="0.5" stop-color="#FAFAFA"/>
<stop offset="1" stop-color="#E0E0E0"/>
</linearGradient>
<clipPath id="clip0_428_4707">
<rect width="32" height="29.7674" fill="white"/>
</clipPath>
</defs>
</svg>
